<?xml version="1.0" encoding="utf-8"?>
<!-- Generator: Adobe Illustrator 15.0.2, SVG Export Plug-In . SVG Version: 6.00 Build 0)  -->
<!DOCTYPE svg PUBLIC "-//W3C//DTD SVG 1.1//EN" "http://www.w3.org/Graphics/SVG/1.1/DTD/svg11.dtd">
<svg version="1.1" id="Слой_1" xmlns="http://www.w3.org/2000/svg" xmlns:xlink="http://www.w3.org/1999/xlink" x="0px" y="0px"
	 width="1807.574px" height="250px" viewBox="0 0 1807.574 250" enable-background="new 0 0 1807.574 250" xml:space="preserve">
<circle fill="#DD0000" cx="125" cy="125" r="125"/>
<path fill="#BB0000" d="M213.167,118.5L75,52.667v147.166l28.5,48c0,0,43.939,9.045,83.309-14.492
	c45.746-27.349,57.024-71.008,57.024-71.008L213.167,118.5z"/>
<polygon fill="#FFFFFF" points="190.503,108.077 96.979,163.044 97.011,85.512 133.659,103.002 112.017,117.328 111.961,138.326 
	172.788,99.599 74.958,52.5 74.958,200 213.25,118.833 "/>
<path fill="#DD0000" d="M390.906,78.782h-78.353v32.043h71.944v25.429h-71.944v36.179h79.799v27.083H280.509V52.32h110.397V78.782z"
	/>
<path fill="#DD0000" d="M518.661,199.516H414.466V52.32h32.251v119.492h71.944V199.516z"/>
<path fill="#DD0000" d="M537.256,52.32h59.54c45.689,0,71.325,26.047,71.325,73.597c0,47.342-25.636,73.599-71.325,73.599h-59.54
	V52.32z M592.869,172.64c29.562,0,42.792-17.158,42.792-46.723c0-29.565-13.643-46.723-42.792-46.723H569.3v93.443h23.569V172.64z"
	/>
<path fill="#DD0000" d="M828.951,126.123c0,45.896-29.15,76.905-72.358,76.905c-43.62,0-72.77-30.804-72.77-76.905
	c0-46.722,28.942-77.319,72.976-77.319C799.8,48.804,828.951,80.022,828.951,126.123z M716.488,125.503
	c0,31.631,15.299,50.649,40.313,50.858c24.394,0,39.485-19.436,39.485-50.858c0-31.01-15.298-50.236-39.899-50.236
	C731.992,75.267,716.488,94.906,716.488,125.503z"/>
<path fill="#DD0000" d="M925.485,52.32c27.085,0,49.619,12.196,49.619,41.759c0,17.158-8.685,30.597-23.36,36.179
	c16.33,3.307,20.467,19.847,21.706,34.317c0.826,9.305,1.241,29.563,7.028,34.94h-33.49c-3.724-7.443-3.724-22.119-4.55-30.184
	c-2.067-20.261-8.268-27.496-29.355-27.496h-28.738v57.68h-32.041V52.32H925.485z M884.346,118.475h30.599
	c15.093,0,28.526-2.688,28.526-20.881c0-16.953-13.434-19.847-27.08-19.847h-32.045V118.475z"/>
<path fill="#DD0000" d="M1129.523,199.516h-33.904l-11.579-32.873h-54.785l-11.991,32.873h-33.075l56.022-147.405h33.284
	L1129.523,199.516z M1056.751,88.292l-19.641,54.786h39.076L1056.751,88.292z"/>
<path fill="#DD0000" d="M1142.124,52.32h59.541c45.689,0,71.324,26.047,71.324,73.597c0,47.342-25.635,73.599-71.324,73.599h-59.541
	V52.32z M1197.737,172.64c29.563,0,42.794-17.158,42.794-46.723c0-29.565-13.644-46.723-42.794-46.723h-23.569v93.443h23.569V172.64
	z"/>
<path fill="#DD0000" d="M1327.557,199.516h-32.459V52.32h32.459V199.516z"/>
<path fill="#DD0000" d="M1494.802,126.123c0,45.896-29.152,76.905-72.36,76.905c-43.618,0-72.768-30.804-72.768-76.905
	c0-46.722,28.944-77.319,72.977-77.319C1465.65,48.804,1494.802,80.022,1494.802,126.123z M1382.336,125.503
	c0,31.631,15.298,50.649,40.314,50.858c24.395,0,39.485-19.436,39.485-50.858c0-31.01-15.299-50.236-39.898-50.236
	C1397.842,75.267,1382.336,94.906,1382.336,125.503z"/>
<path fill="#DD0000" d="M1525.156,201.737c-3.096,0-5.734-1.112-7.923-3.331c-2.186-2.222-3.279-4.879-3.279-7.975
	c0-3.094,1.094-5.771,3.279-8.026c2.188-2.252,4.827-3.382,7.923-3.382c3.164,0,5.855,1.13,8.076,3.382
	c2.224,2.255,3.332,4.933,3.332,8.026c0,3.096-1.112,5.753-3.332,7.975C1531.013,200.625,1528.32,201.737,1525.156,201.737z"/>
<path fill="#DD0000" stroke="#DD0000" stroke-width="3" stroke-miterlimit="10" d="M1658.593,56.313h-86.669v64.951h78.396v3.723
	h-78.396v74.674h-4.138V52.382h90.807V56.313z"/>
<path fill="#DD0000" stroke="#DD0000" stroke-width="3" stroke-miterlimit="10" d="M1806.074,199.66h-4.138V69.551
	c0-4.136,0.414-8.067,0.414-12.203c0,0-41.784,94.945-62.882,142.313h-5.172c-20.892-46.954-62.882-142.313-62.882-142.313
	c0,4.136,0.206,8.273,0.206,12.41V199.66h-4.344V52.382h6.205l63.297,142.728l63.709-142.728h5.586V199.66L1806.074,199.66z"/>
</svg>
