<?xml version="1.0" encoding="utf-8"?>
<!-- Generator: Adobe Illustrator 15.0.2, SVG Export Plug-In . SVG Version: 6.00 Build 0)  -->
<!DOCTYPE svg PUBLIC "-//W3C//DTD SVG 1.1//EN" "http://www.w3.org/Graphics/SVG/1.1/DTD/svg11.dtd">
<svg version="1.1" id="Слой_1" xmlns="http://www.w3.org/2000/svg" xmlns:xlink="http://www.w3.org/1999/xlink" x="0px" y="0px"
	 width="30px" height="240px" viewBox="219.26 1058.875 30 240" enable-background="new 219.26 1058.875 30 240"
	 xml:space="preserve">
<rect x="219.26" y="1058.875" display="none" width="30" height="30"/>
<rect x="219.26" y="1088.875" display="none" width="30" height="30"/>
<rect x="219.26" y="1118.875" display="none" width="30" height="30"/>
<rect x="219.26" y="1148.875" display="none" width="30" height="30"/>
<rect x="219.26" y="1178.875" display="none" width="30" height="30"/>
<rect x="219.26" y="1208.875" display="none" width="30" height="30"/>
<rect x="219.26" y="1238.875" display="none" width="30" height="30"/>
<rect x="219.26" y="1268.875" display="none" width="30" height="30"/>
<g>
	<path fill="#BB0000" d="M245.58,1162.962l-16.58-7.899v17.659l3.42,5.761c0,0,5.271,1.089,9.997-1.737
		c5.489-3.281,6.843-8.521,6.843-8.521L245.58,1162.962z"/>
	<polygon fill="#FFFFFF" points="229.967,1156.814 229.967,1171.919 244.094,1163.613 	"/>
</g>
<g>
	<path fill="#BB0000" d="M240.615,1125.123l-12.275,0.008v17.732l4.08,5.76c0,0,5.271,1.088,9.997-1.738
		c5.489-3.279,6.843-8.521,6.843-8.521L240.615,1125.123z"/>
	<rect x="229.54" y="1126.011" fill="#FFFFFF" width="3.899" height="15.982"/>
	<rect x="236.141" y="1126.011" fill="#FFFFFF" width="3.899" height="15.982"/>
</g>
<g>
	<path fill="#BB0000" d="M242.445,1096.585l-14.961,0.006v14.931l4.936,7.14c0,0,5.271,1.088,9.997-1.738
		c5.489-3.281,6.843-8.521,6.843-8.521L242.445,1096.585z"/>
	<rect x="228.618" y="1097.707" fill="#FFFFFF" width="12.698" height="12.711"/>
</g>
<g>
	<g enable-background="new    ">
		<path fill="#DD0000" d="M242.723,1203.875c-0.41,0-0.807-0.168-1.082-0.456l-4.123-4.11c-1.406,0.976-3.088,1.489-4.795,1.489
			c-4.677,0-8.463-3.786-8.463-8.462c0-4.675,3.786-8.461,8.463-8.461c4.674,0,8.461,3.786,8.461,8.461
			c0,1.707-0.519,3.39-1.49,4.797l4.123,4.123c0.274,0.276,0.443,0.674,0.443,1.082
			C244.26,1203.179,243.563,1203.875,242.723,1203.875z M232.723,1186.951c-2.97,0-5.386,2.416-5.386,5.386s2.416,5.384,5.386,5.384
			c2.969,0,5.383-2.414,5.383-5.384S235.689,1186.951,232.723,1186.951z"/>
	</g>
</g>
<g display="none">
	<path display="inline" fill="#DD0000" d="M233.818,1263.2l-6.271-5.879c-0.076-0.068-2.289-2.031-2.289-4.375
		c0-2.861,1.799-4.57,4.803-4.57c1.758,0,3.404,1.348,4.197,2.109c0.793-0.764,2.441-2.109,4.199-2.109
		c3.003,0,4.801,1.709,4.801,4.57c0,2.344-2.211,4.307-2.301,4.395l-6.258,5.859c-0.12,0.116-0.281,0.176-0.441,0.176
		C234.1,1263.376,233.938,1263.317,233.818,1263.2z"/>
</g>
<g display="none">
	<g display="inline">
		<path fill="#DDDDDD" d="M238.459,1278.375c2.512,0,2.801,1.467,2.801,2.57c0,1.019-0.886,2.205-1.668,2.935l-5.33,4.992
			l-5.345-5.011l-0.026-0.025l-0.021-0.018c-0.417-0.371-1.608-1.695-1.608-2.873c0-1.104,0.289-2.57,2.801-2.57
			c0.75,0,1.803,0.58,2.813,1.552l1.387,1.331l1.387-1.331C236.657,1278.956,237.709,1278.375,238.459,1278.375 M238.459,1276.375
			c-1.758,0-3.406,1.348-4.199,2.109c-0.793-0.764-2.441-2.109-4.199-2.109c-3.002,0-4.801,1.709-4.801,4.57
			c0,2.344,2.211,4.307,2.289,4.375l6.27,5.879c0.121,0.117,0.281,0.176,0.441,0.176s0.321-0.059,0.441-0.176l6.258-5.859
			c0.09-0.088,2.301-2.051,2.301-4.395C243.26,1278.084,241.462,1276.375,238.459,1276.375L238.459,1276.375z"/>
	</g>
</g>
<g>
	<path fill="#FFFFFF" d="M241.76,1072c0,0.342-0.283,0.625-0.625,0.625h-4.375c-0.254,0-0.479-0.156-0.576-0.391
		c-0.098-0.227-0.049-0.498,0.137-0.674l1.35-1.35c-0.918-0.85-2.129-1.338-3.408-1.338c-2.754,0-5,2.246-5,5s2.246,5,5,5
		c1.555,0,2.988-0.703,3.945-1.943c0.049-0.066,0.137-0.105,0.227-0.115c0.088,0,0.176,0.027,0.242,0.088l1.34,1.348
		c0.115,0.107,0.115,0.293,0.02,0.42c-1.426,1.719-3.535,2.705-5.771,2.705c-4.131,0-7.5-3.369-7.5-7.5s3.369-7.5,7.5-7.5
		c1.924,0,3.789,0.771,5.166,2.07l1.271-1.26c0.176-0.188,0.447-0.234,0.684-0.139c0.227,0.1,0.383,0.322,0.383,0.576V1072H241.76z"
		/>
</g>
<g>
	<path fill="#DD0000" d="M239.934,1229.236l-1.373,1.373c-0.184,0.183-0.436,0.281-0.688,0.281s-0.504-0.1-0.686-0.281l-2.972-2.971
		l-2.971,2.971c-0.183,0.183-0.435,0.281-0.687,0.281s-0.504-0.1-0.688-0.281l-1.373-1.373c-0.184-0.185-0.282-0.437-0.282-0.688
		s0.101-0.504,0.282-0.686l2.97-2.972l-2.97-2.971c-0.184-0.182-0.282-0.434-0.282-0.686c0-0.254,0.101-0.506,0.282-0.688
		l1.373-1.373c0.184-0.183,0.436-0.282,0.688-0.282s0.504,0.101,0.687,0.282l2.971,2.97l2.972-2.97
		c0.182-0.183,0.434-0.282,0.686-0.282c0.253,0,0.505,0.101,0.688,0.282l1.373,1.373c0.184,0.185,0.282,0.437,0.282,0.688
		s-0.1,0.504-0.282,0.686l-2.97,2.971l2.97,2.972c0.184,0.182,0.282,0.434,0.282,0.686
		C240.216,1228.801,240.116,1229.053,239.934,1229.236z"/>
</g>
<g>
	<path fill="#DD0000" d="M242.28,1254.39l-3.645,3.555l0.863,5.021c0.01,0.07,0.01,0.13,0.01,0.2c0,0.262-0.12,0.502-0.411,0.502
		c-0.141,0-0.281-0.05-0.402-0.12l-4.508-2.369l-4.508,2.369c-0.131,0.07-0.262,0.12-0.402,0.12c-0.291,0-0.421-0.24-0.421-0.502
		c0-0.07,0.01-0.13,0.02-0.2l0.863-5.021l-3.654-3.555c-0.12-0.13-0.251-0.301-0.251-0.481c0-0.301,0.312-0.422,0.563-0.462
		l5.04-0.733l2.259-4.567c0.091-0.191,0.262-0.412,0.492-0.412s0.401,0.221,0.492,0.412l2.259,4.567l5.04,0.733
		c0.241,0.04,0.563,0.161,0.563,0.462C242.541,1254.089,242.41,1254.26,242.28,1254.39z"/>
</g>
<g>
	<path fill="#DDDDDD" d="M242.28,1282.186l-3.645,3.555l0.863,5.02c0.01,0.07,0.01,0.131,0.01,0.201c0,0.271-0.12,0.502-0.411,0.502
		c-0.141,0-0.281-0.051-0.402-0.121l-4.508-2.369l-4.508,2.369c-0.131,0.07-0.262,0.121-0.402,0.121
		c-0.291,0-0.421-0.24-0.421-0.502c0-0.07,0.01-0.131,0.02-0.201l0.863-5.02l-3.654-3.555c-0.12-0.131-0.251-0.301-0.251-0.482
		c0-0.301,0.312-0.422,0.563-0.461l5.04-0.734l2.259-4.566c0.091-0.191,0.262-0.412,0.492-0.412s0.401,0.221,0.492,0.412
		l2.259,4.566l5.04,0.734c0.241,0.039,0.563,0.16,0.563,0.461C242.541,1281.885,242.41,1282.055,242.28,1282.186z M240.322,1282.307
		l-4.237-0.623l-1.897-3.836l-1.897,3.836l-4.237,0.623l3.072,2.98l-0.732,4.229l3.795-1.998l3.785,1.998l-0.723-4.229
		L240.322,1282.307z"/>
</g>
</svg>
