<?xml version="1.0" encoding="utf-8"?>
<!-- Generator: Adobe Illustrator 15.0.2, SVG Export Plug-In . SVG Version: 6.00 Build 0)  -->
<!DOCTYPE svg PUBLIC "-//W3C//DTD SVG 1.1//EN" "http://www.w3.org/Graphics/SVG/1.1/DTD/svg11.dtd">
<svg version="1.1" id="Слой_1" xmlns="http://www.w3.org/2000/svg" xmlns:xlink="http://www.w3.org/1999/xlink" x="0px" y="0px"
	 width="30px" height="240px" viewBox="219.26 1058.875 30 240" enable-background="new 219.26 1058.875 30 240"
	 xml:space="preserve">
<rect x="219.26" y="1058.875" display="none" width="30" height="30"/>
<rect x="219.26" y="1088.875" display="none" width="30" height="30"/>
<rect x="219.26" y="1118.875" display="none" width="30" height="30"/>
<rect x="219.26" y="1148.875" display="none" width="30" height="30"/>
<rect x="219.26" y="1178.875" display="none" width="30" height="30"/>
<rect x="219.26" y="1208.875" display="none" width="30" height="30"/>
<rect x="219.26" y="1238.875" display="none" width="30" height="30"/>
<rect x="219.26" y="1268.875" display="none" width="30" height="30"/>
<g>
	<path fill="#BB0000" d="M245.58,1163.163l-16.58-7.9v17.66l3.42,5.76c0,0,5.271,1.088,9.997-1.738
		c5.489-3.281,6.843-8.521,6.843-8.521L245.58,1163.163z"/>
	<polygon fill="#FFFFFF" points="229.967,1157.016 229.967,1172.12 244.094,1163.815 	"/>
</g>
<g>
	<path fill="#BB0000" d="M240.615,1125.123l-12.275,0.008v17.732l4.08,5.76c0,0,5.271,1.088,9.997-1.738
		c5.489-3.281,6.843-8.521,6.843-8.521L240.615,1125.123z"/>
	<rect x="229.54" y="1126.011" fill="#FFFFFF" width="3.899" height="15.982"/>
	<rect x="236.141" y="1126.011" fill="#FFFFFF" width="3.899" height="15.982"/>
</g>
<g>
	<path fill="#BB0000" d="M242.445,1096.585l-14.961,0.006v14.93l4.936,7.139c0,0,5.271,1.088,9.997-1.738
		c5.489-3.281,6.843-8.521,6.843-8.521L242.445,1096.585z"/>
	<rect x="228.618" y="1097.707" fill="#FFFFFF" width="12.698" height="12.711"/>
</g>
<g>
	<g enable-background="new    ">
		<path fill="#DD0000" d="M242.722,1203.875c-0.409,0-0.806-0.168-1.082-0.456l-4.123-4.11c-1.406,0.974-3.088,1.489-4.795,1.489
			c-4.676,0-8.462-3.786-8.462-8.462c0-4.675,3.786-8.461,8.462-8.461c4.675,0,8.461,3.786,8.461,8.461
			c0,1.707-0.518,3.39-1.49,4.797l4.123,4.123c0.275,0.276,0.444,0.674,0.444,1.082
			C244.26,1203.179,243.563,1203.875,242.722,1203.875z M232.722,1186.951c-2.969,0-5.385,2.416-5.385,5.386
			s2.416,5.384,5.385,5.384s5.384-2.414,5.384-5.384S235.69,1186.951,232.722,1186.951z"/>
	</g>
</g>
<g>
	<path fill="#DD0000" d="M238.155,1231.375l-3.896-3.896l-3.896,3.896l-3.604-3.604l3.896-3.896l-3.896-3.896l3.604-3.604
		l3.896,3.896l3.896-3.896l3.604,3.604l-3.896,3.896l3.896,3.896L238.155,1231.375z"/>
</g>
<g>
	<path fill="#DD0000" d="M233.818,1261.2l-6.27-5.879c-0.078-0.068-2.289-2.031-2.289-4.375c0-2.861,1.798-4.57,4.801-4.57
		c1.758,0,3.406,1.348,4.199,2.109c0.793-0.762,2.441-2.109,4.199-2.109c3.003,0,4.801,1.709,4.801,4.57
		c0,2.344-2.211,4.307-2.301,4.395l-6.258,5.859c-0.12,0.117-0.281,0.176-0.441,0.176S233.938,1261.317,233.818,1261.2z"/>
</g>
<g>
	<g>
		<path d="M238.459,1278.375c2.511,0,2.801,1.467,2.801,2.57c0,1.019-0.886,2.205-1.668,2.935l-5.331,4.992l-5.344-5.011
			l-0.027-0.025l-0.021-0.018c-0.417-0.371-1.609-1.695-1.609-2.873c0-1.104,0.29-2.57,2.801-2.57c0.75,0,1.802,0.58,2.813,1.552
			l1.386,1.331l1.386-1.331C236.657,1278.956,237.709,1278.375,238.459,1278.375 M238.459,1276.375
			c-1.758,0-3.406,1.348-4.199,2.109c-0.793-0.762-2.441-2.109-4.199-2.109c-3.003,0-4.801,1.709-4.801,4.57
			c0,2.344,2.211,4.307,2.289,4.375l6.27,5.879c0.12,0.117,0.281,0.176,0.441,0.176s0.321-0.059,0.441-0.176l6.258-5.859
			c0.09-0.088,2.301-2.051,2.301-4.395C243.26,1278.084,241.462,1276.375,238.459,1276.375L238.459,1276.375z"/>
	</g>
</g>
<g>
	<path fill="#FFFFFF" d="M241.76,1072c0,0.342-0.283,0.625-0.625,0.625h-4.375c-0.254,0-0.479-0.156-0.576-0.391
		c-0.098-0.225-0.049-0.498,0.137-0.674l1.348-1.348c-0.918-0.85-2.129-1.338-3.408-1.338c-2.754,0-5,2.246-5,5s2.246,5,5,5
		c1.553,0,2.988-0.703,3.945-1.943c0.049-0.068,0.137-0.107,0.225-0.117c0.088,0,0.176,0.029,0.244,0.088l1.338,1.348
		c0.117,0.107,0.117,0.293,0.02,0.42c-1.426,1.719-3.535,2.705-5.771,2.705c-4.131,0-7.5-3.369-7.5-7.5s3.369-7.5,7.5-7.5
		c1.924,0,3.789,0.771,5.166,2.07l1.27-1.26c0.176-0.186,0.449-0.234,0.684-0.137c0.225,0.098,0.381,0.322,0.381,0.576V1072z"/>
</g>
</svg>
