<?xml version="1.0" encoding="utf-8"?>
<!-- Generator: Adobe Illustrator 15.0.2, SVG Export Plug-In . SVG Version: 6.00 Build 0)  -->
<!DOCTYPE svg PUBLIC "-//W3C//DTD SVG 1.1//EN" "http://www.w3.org/Graphics/SVG/1.1/DTD/svg11.dtd">
<svg version="1.1" id="Layer_1" xmlns="http://www.w3.org/2000/svg" xmlns:xlink="http://www.w3.org/1999/xlink" x="0px" y="0px"
	 width="469.124px" height="255.76px" viewBox="0 0 469.124 255.76" enable-background="new 0 0 469.124 255.76"
	 xml:space="preserve">
<g>
	<g id="PLAY_1_">
		<defs>
			<path id="SVGID_1_" d="M72.645,183.481l-23.063-13.315c0,0-42.016-24.261-44.486-25.687s-4.931-0.563-4.931,2.418
				c0,4.965,0,51.8,0,51.8s0,50.615,0,52.851c0,2.234,1.759,3.197,3.905,1.959c2.145-1.24,45.512-26.279,45.512-26.279
				l23.062-13.314c0,0,19.568-11.297,22.169-12.798c2.601-1.503,2.351-3.563,0.156-4.745
				C92.774,195.187,72.645,183.481,72.645,183.481z"/>
		</defs>
		<clipPath id="SVGID_2_">
			<use xlink:href="#SVGID_1_"  overflow="visible"/>
		</clipPath>
		<linearGradient id="SVGID_3_" gradientUnits="userSpaceOnUse" x1="28.7324" y1="142.0454" x2="28.7324" y2="255.3481">
			<stop  offset="0" style="stop-color:#1278AC"/>
			<stop  offset="0.2863" style="stop-color:#4291B3"/>
			<stop  offset="0.767" style="stop-color:#7BBCB9"/>
			<stop  offset="1" style="stop-color:#90CEBA"/>
		</linearGradient>
		<polygon clip-path="url(#SVGID_2_)" fill="url(#SVGID_3_)" points="0.166,142.045 0.166,198.697 0.166,255.348 57.299,198.698 		
			"/>
		<linearGradient id="SVGID_4_" gradientUnits="userSpaceOnUse" x1="0.1655" y1="170.1655" x2="72.645" y2="170.1655">
			<stop  offset="0" style="stop-color:#52BBA5"/>
			<stop  offset="1" style="stop-color:#E5E692"/>
		</linearGradient>
		<polygon clip-path="url(#SVGID_2_)" fill="url(#SVGID_4_)" points="72.645,183.481 49.582,170.166 0.166,141.633 0.166,142.045 
			57.299,198.698 		"/>
		<linearGradient id="SVGID_5_" gradientUnits="userSpaceOnUse" x1="36.4048" y1="198.6978" x2="36.4048" y2="255.7603">
			<stop  offset="0" style="stop-color:#E42F2F"/>
			<stop  offset="0.1668" style="stop-color:#D43443"/>
			<stop  offset="0.5748" style="stop-color:#AE3B6D"/>
			<stop  offset="0.8619" style="stop-color:#943E86"/>
			<stop  offset="1" style="stop-color:#893F90"/>
		</linearGradient>
		<polygon clip-path="url(#SVGID_2_)" fill="url(#SVGID_5_)" points="0.166,255.348 0.166,255.76 49.582,227.227 72.644,213.913 
			57.299,198.698 		"/>
		<linearGradient id="SVGID_6_" gradientUnits="userSpaceOnUse" x1="78.1504" y1="183.481" x2="78.1504" y2="213.9126">
			<stop  offset="0" style="stop-color:#EF7F73"/>
			<stop  offset="0.1194" style="stop-color:#F08973"/>
			<stop  offset="0.7128" style="stop-color:#F9B56F"/>
			<stop  offset="1" style="stop-color:#FDC56A"/>
		</linearGradient>
		<polygon clip-path="url(#SVGID_2_)" fill="url(#SVGID_6_)" points="72.645,183.481 57.299,198.698 72.644,213.913 99.001,198.697 
					"/>
	</g>
	<g>
		<path fill="#F9F9F9" d="M377.694,234.69c-2.146,0-4.104-0.396-5.877-1.187c-1.773-0.792-3.263-2.01-4.466-3.652h-0.36
			c0.24,1.924,0.36,3.748,0.36,5.471v13.559h-4.988v-47.742h4.058l0.69,4.51h0.24c1.284-1.805,2.778-3.106,4.481-3.908
			s3.658-1.203,5.861-1.203c4.37,0,7.743,1.494,10.117,4.48c2.375,2.986,3.563,7.176,3.563,12.566c0,5.412-1.208,9.615-3.621,12.614
			C385.337,233.193,381.985,234.69,377.694,234.69z M376.973,204.776c-3.367,0-5.802,0.933-7.305,2.796
			c-1.503,1.864-2.275,4.831-2.316,8.9v1.111c0,4.631,0.772,7.943,2.316,9.938s4.02,2.99,7.425,2.99
			c2.848,0,5.078-1.151,6.692-3.456c1.612-2.304,2.419-5.481,2.419-9.532c0-4.107-0.807-7.261-2.419-9.455
			C382.171,205.873,379.899,204.776,376.973,204.776z"/>
		<path fill="#F9F9F9" d="M402.93,234.088h-4.99v-46.78h4.99V234.088z"/>
		<path fill="#F9F9F9" d="M431.622,234.088l-0.993-4.69h-0.24c-1.644,2.066-3.282,3.465-4.916,4.194
			c-1.633,0.733-3.673,1.098-6.117,1.098c-3.267,0-5.827-0.842-7.682-2.525s-2.781-4.077-2.781-7.185
			c0-6.653,5.322-10.141,15.964-10.463l5.594-0.181v-2.044c0-2.586-0.557-4.496-1.67-5.727c-1.111-1.234-2.893-1.85-5.336-1.85
			c-2.747,0-5.854,0.842-9.32,2.525l-1.534-3.818c1.625-0.882,3.402-1.573,5.338-2.074c1.934-0.501,3.872-0.752,5.817-0.752
			c3.928,0,6.839,0.871,8.734,2.615c1.893,1.744,2.84,4.54,2.84,8.389v22.487H431.622z M420.349,230.572
			c3.105,0,5.545-0.852,7.32-2.555c1.772-1.703,2.661-4.089,2.661-7.157v-2.976l-4.993,0.209c-3.968,0.143-6.827,0.757-8.583,1.852
			c-1.753,1.092-2.63,2.791-2.63,5.096c0,1.803,0.545,3.177,1.639,4.117C416.855,230.101,418.382,230.572,420.349,230.572z"/>
		<path fill="#F9F9F9" d="M438.217,201.138h5.35l7.216,18.791c1.583,4.29,2.566,7.386,2.948,9.291h0.24
			c0.261-1.024,0.808-2.771,1.638-5.249c0.832-2.476,3.554-10.085,8.162-22.833h5.354l-14.162,37.521
			c-1.402,3.708-3.041,6.339-4.917,7.895c-1.873,1.552-4.174,2.327-6.897,2.327c-1.524,0-3.027-0.17-4.512-0.51v-3.998
			c1.102,0.24,2.336,0.361,3.699,0.361c3.428,0,5.871-1.924,7.336-5.773l1.833-4.689L438.217,201.138z"/>
	</g>
	<g>
		<path fill="#F9F9F9" d="M285.245,204.2c1.584,1.311,4.892,4.065,4.892,9.306c0,5.097-2.895,7.514-5.79,9.785
			c-0.896,0.895-1.93,1.863-1.93,3.381c0,1.513,1.033,2.341,1.794,2.962l2.482,1.926c3.032,2.551,5.786,4.896,5.786,9.653
			c0,6.478-6.272,13.023-18.124,13.023c-9.995,0-14.817-4.754-14.817-9.857c0-2.48,1.235-5.993,5.307-8.408
			c4.27-2.619,10.063-2.96,13.163-3.172c-0.968-1.239-2.068-2.549-2.068-4.682c0-1.17,0.346-1.86,0.689-2.691
			c-0.761,0.07-1.518,0.139-2.208,0.139c-7.303,0-11.438-5.445-11.438-10.818c0-3.171,1.449-6.688,4.409-9.235
			c3.93-3.239,8.616-3.792,12.341-3.792h14.194l-4.411,2.481H285.245z M280.351,234.802c-0.551-0.072-0.897-0.072-1.583-0.072
			c-0.62,0-4.347,0.141-7.238,1.108c-1.516,0.547-5.928,2.201-5.928,7.097c0,4.891,4.758,8.411,12.133,8.411
			c6.612,0,10.131-3.177,10.131-7.446C287.865,240.378,285.59,238.525,280.351,234.802z M282.351,221.706
			c1.583-1.587,1.719-3.79,1.719-5.032c0-4.961-2.962-12.68-8.681-12.68c-1.794,0-3.722,0.895-4.825,2.275
			c-1.17,1.447-1.518,3.306-1.518,5.1c0,4.617,2.688,12.268,8.618,12.268C279.387,223.636,281.243,222.809,282.351,221.706z"/>
		<path fill="#F9F9F9" d="M241.856,233.699c-10.939,0-16.788-8.533-16.788-16.241c0-9.015,7.361-16.718,17.824-16.718
			c10.11,0,16.441,7.91,16.441,16.238C259.334,225.094,253.075,233.699,241.856,233.699z M250.456,228.126
			c1.654-2.204,2.067-4.955,2.067-7.641c0-6.057-2.89-17.615-11.423-17.615c-2.27,0-4.54,0.896-6.191,2.344
			c-2.684,2.405-3.168,5.434-3.168,8.396c0,6.807,3.372,18.02,11.7,18.02C246.124,231.63,248.877,230.326,250.456,228.126z"/>
		<path fill="#F9F9F9" d="M204.562,233.699c-10.941,0-16.791-8.533-16.791-16.241c0-9.015,7.364-16.718,17.824-16.718
			c10.113,0,16.443,7.91,16.443,16.238C222.038,225.094,215.778,233.699,204.562,233.699z M213.163,228.126
			c1.651-2.204,2.065-4.955,2.065-7.641c0-6.057-2.892-17.615-11.425-17.615c-2.269,0-4.541,0.896-6.191,2.344
			c-2.684,2.405-3.165,5.434-3.165,8.396c0,6.807,3.37,18.02,11.699,18.02C208.83,231.63,211.581,230.326,213.163,228.126z"/>
		<path fill="#F9F9F9" d="M182.515,232.621l-9.894,2.283c-4.014,0.624-7.61,1.173-11.413,1.173
			c-19.096,0-26.357-14.044-26.357-25.044c0-13.419,10.306-25.868,27.949-25.868c3.737,0,7.331,0.552,10.582,1.452
			c5.188,1.453,7.609,3.25,9.132,4.289l-5.744,5.465l-2.42,0.551l1.729-2.768c-2.351-2.281-6.644-6.5-14.804-6.5
			c-10.931,0-19.165,8.305-19.165,20.41c0,13.002,9.41,25.247,24.488,25.247c4.432,0,6.71-0.898,8.787-1.73v-11.136l-10.444,0.553
			l5.532-2.978h14.667l-1.797,1.729c-0.488,0.417-0.555,0.557-0.693,1.105c-0.072,0.624-0.137,2.632-0.137,3.323V232.621z"/>
		<path fill="#F9F9F9" d="M307.11,230.628c-2.284-0.208-2.762-0.621-2.762-3.322v-0.762v-38.393
			c0.014-0.149,0.023-0.302,0.037-0.446c0.279-2.42,0.97-2.835,3.117-4.082h-9.896l-5.19,2.491h5.289v0.031l-0.004-0.025v40.424
			v2.285c0,1.381-0.273,1.591-1.866,3.664h12.246l2.56-1.518C309.466,230.833,308.288,230.766,307.11,230.628z"/>
		<path fill="#F9F9F9" d="M335.26,231.264c-0.753,0.413-1.509,0.896-2.262,1.237c-2.271,1.03-4.606,1.306-6.671,1.306
			c-2.193,0-5.631-0.142-9.138-2.681c-4.874-3.438-7.004-9.346-7.004-14.497c0-10.647,8.656-15.868,15.732-15.868
			c2.474,0,5.019,0.617,7.08,1.925c3.432,2.263,4.325,5.217,4.803,6.798l-16.141,6.529l-5.291,0.412
			c1.715,8.725,7.623,13.805,14.152,13.805c3.503,0,6.046-1.234,8.381-2.4L335.26,231.264z M328.805,210.789
			c1.303-0.479,1.99-0.893,1.99-1.854c0-2.746-3.09-5.908-6.803-5.908c-2.751,0-7.9,2.131-7.9,9.549
			c0,1.168,0.138,2.404,0.209,3.645L328.805,210.789z"/>
		<g>
			<path fill="#F9F9F9" d="M341.892,201.231v4.533h-0.551v-4.533h-1.5v-0.47h3.55v0.47H341.892z"/>
			<path fill="#F9F9F9" d="M348.071,205.764v-4.575h-0.025l-1.396,4.575h-0.431l-1.408-4.575h-0.018v4.575h-0.5v-5.003h0.857
				l1.274,4.044h0.018l1.255-4.044h0.869v5.003H348.071z"/>
		</g>
	</g>
</g>
<g>
	<path fill="#FFFFFF" d="M50.985,0.133H9.091C4.072,0.133,0,4.202,0,9.224v92.814c0,5.023,4.072,9.095,9.091,9.095h41.894
		c5.022,0,9.096-4.072,9.096-9.095V9.224C60.081,4.202,56.008,0.133,50.985,0.133z M30.039,104.458c-3.343,0-6.053-2.71-6.053-6.057
		c0-3.344,2.71-6.055,6.053-6.055c3.347,0,6.057,2.711,6.057,6.055C36.095,101.748,33.386,104.458,30.039,104.458z M52.939,89.396
		h-45.8V20.934h45.8V89.396z"/>
	<g>
		<path fill="#FFFFFF" d="M106.679,38.402L87.575,94.637h8.749l5.704-17.267h18.497l5.865,17.267h8.99l-19.187-56.235H106.679z
			 M111.212,47.648c0.645,2.51,1.34,5.117,2.235,7.933l5.149,14.91h-14.652l5.077-15.007
			C109.794,53.051,110.527,50.422,111.212,47.648z"/>
		<path fill="#FFFFFF" d="M160.102,52.98c-5.795,0-10.438,2.236-13.527,6.488l-0.339-5.594h-7.782l0.047,0.716
			c0.228,3.484,0.325,7.32,0.325,12.827v43.345h8.506V90.534c2.64,3.159,6.856,4.997,11.631,4.997c4.973,0,9.555-1.948,12.893-5.481
			c3.727-3.939,5.693-9.601,5.693-16.365c0-5.978-1.708-11.146-4.944-14.942C169.437,55.026,164.998,52.98,160.102,52.98z
			 M157.982,60.023c7.584,0,10.978,7.026,10.978,13.988c0,8.98-4.33,14.559-11.302,14.559c-4.759,0-8.876-3.239-10.022-7.895
			c-0.197-0.723-0.304-1.678-0.304-2.755v-6.842c0-0.619,0.139-1.371,0.272-2.1c0.042-0.233,0.088-0.465,0.123-0.691
			C148.995,63.419,153.207,60.023,157.982,60.023z"/>
		<path fill="#FFFFFF" d="M203.914,52.98c-5.794,0-10.435,2.236-13.527,6.488l-0.338-5.594h-7.781l0.044,0.716
			c0.229,3.488,0.327,7.32,0.327,12.827v43.345h8.509V90.534c2.639,3.159,6.852,4.997,11.626,4.997
			c4.975,0,9.555-1.948,12.897-5.481c3.723-3.939,5.69-9.601,5.69-16.365c0-5.978-1.71-11.146-4.945-14.942
			C213.249,55.026,208.81,52.98,203.914,52.98z M201.797,60.023c7.582,0,10.976,7.026,10.976,13.988
			c0,8.98-4.333,14.559-11.301,14.559c-4.757,0-8.878-3.239-10.024-7.895c-0.197-0.723-0.299-1.678-0.299-2.755v-6.842
			c0-0.623,0.136-1.378,0.271-2.106c0.042-0.229,0.083-0.458,0.124-0.685C192.807,63.419,197.02,60.023,201.797,60.023z"/>
		<path fill="#FFFFFF" d="M258.801,62.229c-7.94-3.075-10.485-5.494-10.485-9.961c0-3.763,2.99-7.556,9.671-7.556
			c5.513,0,9.04,1.917,9.988,2.506l0.722,0.445l2.4-7.1l-0.475-0.278c-1.424-0.835-5.486-2.78-12.39-2.78
			c-10.851,0-18.428,6.406-18.428,15.575c0,7.395,4.745,12.562,14.935,16.266c7.218,2.699,9.906,5.464,9.906,10.203
			c0,5.365-4.145,8.694-10.814,8.694c-4.343,0-8.813-1.267-12.263-3.477l-0.738-0.474l-2.284,7.265l0.419,0.278
			c3.211,2.145,9.257,3.696,14.378,3.696c14.623,0,19.808-8.916,19.808-16.552C273.153,71.107,268.996,66.252,258.801,62.229z"/>
		<path fill="#FFFFFF" d="M288.469,44.187l-8.346,2.62v7.068h-6.107v6.8h6.107v20.83c0,5.036,0.963,8.565,2.946,10.795
			c1.901,2.084,4.825,3.232,8.231,3.232c3.218,0,5.502-0.635,6.577-1.016l0.477-0.169l-0.407-6.813l-0.816,0.251
			c-1.075,0.33-2.181,0.458-3.957,0.458c-3.298,0-4.705-2.087-4.705-6.984V60.674h10.263v-6.8h-10.263V44.187z"/>
		<path fill="#FFFFFF" d="M319.816,52.98c-11.904,0-20.217,8.884-20.217,21.601c0,12.336,8.045,20.95,19.565,20.95h0.08
			c9.739,0,20.217-6.785,20.217-21.682c0-6.059-1.873-11.261-5.421-15.05C330.471,54.994,325.551,52.98,319.816,52.98z
			 M319.571,59.697c7.655,0,11.138,7.461,11.138,14.397c0,8.529-4.754,14.72-11.299,14.72h-0.082
			c-6.453,0-11.137-6.087-11.137-14.475C308.19,67.052,311.709,59.697,319.571,59.697z"/>
		<path fill="#FFFFFF" d="M365.522,53.374l-0.51-0.129c-0.75-0.187-1.362-0.265-2.117-0.265c-4.451,0-8.445,2.621-10.667,6.849
			l-0.25-5.955h-7.635l0.049,0.716c0.226,3.369,0.322,7.149,0.322,12.252l-0.08,27.794h8.509V72.952c0-1.18,0.082-2.297,0.233-3.297
			c0.962-5.209,4.476-8.576,8.953-8.576c0.872,0,1.557,0.071,2.284,0.143l0.91,0.094V53.374z"/>
		<path fill="#FFFFFF" d="M384.652,52.899c-11.327,0-19.24,9.049-19.24,22.007c0,12.479,7.871,20.543,20.052,20.543
			c6.406,0,10.863-1.406,13.472-2.583l0.511-0.231l-1.633-6.339l-0.711,0.286c-2.318,0.943-5.399,1.906-10.661,1.906
			c-3.696,0-12.22-1.219-12.743-12.336l27.464,0.082l0.109-0.543c0.174-0.864,0.258-2.029,0.258-3.552
			C401.53,63.265,397.11,52.899,384.652,52.899z M384.083,59.372c2.592,0,4.695,0.802,6.247,2.383
			c2.447,2.491,2.877,6.159,2.929,7.919h-19.402C374.645,64.761,377.719,59.372,384.083,59.372z"/>
	</g>
</g>
<g>
	<path fill="#FFFFFF" d="M85.676,1.181h8.64c6.629,0,10.35,3.78,10.35,10.68c0,6.87-3.72,10.68-10.35,10.68h-8.64V1.181z
		 M93.746,18.64c4.29,0,6.21-2.49,6.21-6.78c0-4.29-1.98-6.78-6.21-6.78h-3.42v13.56H93.746z"/>
	<path fill="#FFFFFF" d="M122.965,14.8c0,4.98-3.15,8.22-7.979,8.22c-4.83,0-8.01-3.27-8.01-8.22c0-4.92,3.21-8.189,8.07-8.189
		C119.815,6.611,122.965,9.88,122.965,14.8z M111.236,14.8c0,3.18,1.38,5.01,3.75,5.01c2.34,0,3.72-1.86,3.72-5.04
		c0-3.09-1.41-4.92-3.78-4.92C112.646,9.851,111.236,11.71,111.236,14.8z"/>
	<path fill="#FFFFFF" d="M128.815,7.061l2.88,10.53l2.61-10.53h4.11l2.7,10.47l2.88-10.47h4.35l-4.89,15.479h-4.38l-2.76-10.41
		l-2.67,10.41h-4.41l-4.95-15.479H128.815z"/>
	<path fill="#FFFFFF" d="M160.435,22.54v-9.03c0-1.92-0.36-3.36-2.64-3.36c-2.55,0-3.36,1.83-3.36,4.08v8.31h-4.23V7.061h4.05v2.16
		c1.23-1.65,2.94-2.58,5.13-2.58c3.27,0,5.37,1.95,5.37,5.55v10.35H160.435z"/>
	<path fill="#FFFFFF" d="M172.345,22.54h-4.26V1.181h4.26V22.54z"/>
	<path fill="#FFFFFF" d="M191.244,14.8c0,4.98-3.15,8.22-7.979,8.22c-4.83,0-8.01-3.27-8.01-8.22c0-4.92,3.21-8.189,8.07-8.189
		C188.094,6.611,191.244,9.88,191.244,14.8z M179.515,14.8c0,3.18,1.38,5.01,3.75,5.01c2.34,0,3.72-1.86,3.72-5.04
		c0-3.09-1.41-4.92-3.78-4.92C180.925,9.851,179.515,11.71,179.515,14.8z"/>
	<path fill="#FFFFFF" d="M204.115,22.54c-0.21-0.57-0.24-0.81-0.3-1.5c-1.32,1.32-3.15,1.95-5.01,1.95c-3.42,0-5.52-1.77-5.52-4.68
		c0-4.05,3.689-4.53,6.75-4.919c2.76-0.36,3.78-0.6,3.78-1.86c0-1.41-0.9-2.07-2.79-2.07c-1.95,0-2.76,0.6-3.06,2.37h-3.99
		c0.24-3.45,2.7-5.22,7.169-5.22c3.12,0,6.75,0.72,6.75,5.04v6.69c0,1.41-0.03,2.88,0.54,4.2H204.115z M200.785,15.82
		c-1.47,0.24-3.12,0.42-3.12,2.31c0,1.29,0.87,2.07,2.34,2.07c2.22,0,3.78-1.23,3.78-3.45v-1.74
		C202.794,15.58,201.865,15.64,200.785,15.82z"/>
	<path fill="#FFFFFF" d="M222.324,22.54v-1.98c-1.02,1.59-2.55,2.4-4.68,2.4c-4.29,0-7.02-3.21-7.02-8.22c0-4.89,2.67-8.1,6.78-8.1
		c1.83,0,3.72,0.75,4.71,2.34v-7.8h4.23V22.54H222.324z M218.574,10c-2.31,0-3.66,1.77-3.66,4.74c0,3,1.38,4.8,3.66,4.8
		c2.34,0,3.69-1.74,3.69-4.77C222.264,11.771,220.884,10,218.574,10z"/>
	<path fill="#FFFFFF" d="M253.464,14.8c0,4.98-3.15,8.22-7.979,8.22c-4.83,0-8.01-3.27-8.01-8.22c0-4.92,3.21-8.189,8.07-8.189
		C250.314,6.611,253.464,9.88,253.464,14.8z M241.734,14.8c0,3.18,1.38,5.01,3.75,5.01c2.34,0,3.72-1.86,3.72-5.04
		c0-3.09-1.41-4.92-3.78-4.92C243.145,9.851,241.734,11.71,241.734,14.8z"/>
	<path fill="#FFFFFF" d="M266.514,22.54v-9.03c0-1.92-0.36-3.36-2.64-3.36c-2.55,0-3.36,1.83-3.36,4.08v8.31h-4.23V7.061h4.05v2.16
		c1.23-1.65,2.94-2.58,5.13-2.58c3.27,0,5.37,1.95,5.37,5.55v10.35H266.514z"/>
</g>
<g>
	<path fill="#FFFFFF" d="M135.166,145.081h8.64c6.629,0,10.35,3.78,10.35,10.68c0,6.869-3.72,10.68-10.35,10.68h-8.64V145.081z
		 M143.235,162.54c4.29,0,6.21-2.489,6.21-6.779s-1.98-6.78-6.21-6.78h-3.42v13.56H143.235z"/>
	<path fill="#FFFFFF" d="M172.455,158.7c0,4.98-3.15,8.22-7.979,8.22c-4.83,0-8.01-3.27-8.01-8.22c0-4.92,3.21-8.189,8.07-8.189
		C169.305,150.51,172.455,153.78,172.455,158.7z M160.725,158.7c0,3.181,1.38,5.01,3.75,5.01c2.34,0,3.72-1.859,3.72-5.039
		c0-3.09-1.41-4.92-3.78-4.92C162.135,153.75,160.725,155.61,160.725,158.7z"/>
	<path fill="#FFFFFF" d="M178.305,150.96l2.88,10.529l2.61-10.529h4.11l2.7,10.47l2.88-10.47h4.35l-4.89,15.479h-4.38l-2.76-10.41
		l-2.67,10.41h-4.41l-4.95-15.479H178.305z"/>
	<path fill="#FFFFFF" d="M209.924,166.44v-9.03c0-1.92-0.36-3.359-2.64-3.359c-2.55,0-3.36,1.83-3.36,4.08v8.31h-4.23V150.96h4.05
		v2.16c1.23-1.65,2.94-2.58,5.13-2.58c3.27,0,5.37,1.95,5.37,5.55v10.35H209.924z"/>
	<path fill="#FFFFFF" d="M221.834,166.44h-4.26v-21.359h4.26V166.44z"/>
	<path fill="#FFFFFF" d="M240.733,158.7c0,4.98-3.15,8.22-7.979,8.22c-4.83,0-8.01-3.27-8.01-8.22c0-4.92,3.21-8.189,8.07-8.189
		C237.583,150.51,240.733,153.78,240.733,158.7z M229.004,158.7c0,3.181,1.38,5.01,3.75,5.01c2.34,0,3.72-1.859,3.72-5.039
		c0-3.09-1.41-4.92-3.78-4.92C230.414,153.75,229.004,155.61,229.004,158.7z"/>
	<path fill="#FFFFFF" d="M253.604,166.44c-0.21-0.57-0.24-0.811-0.3-1.5c-1.32,1.319-3.15,1.95-5.01,1.95
		c-3.42,0-5.52-1.771-5.52-4.681c0-4.05,3.689-4.529,6.75-4.919c2.76-0.36,3.78-0.601,3.78-1.86c0-1.41-0.9-2.07-2.79-2.07
		c-1.95,0-2.76,0.601-3.06,2.37h-3.99c0.24-3.449,2.7-5.22,7.169-5.22c3.12,0,6.75,0.72,6.75,5.04v6.689c0,1.41-0.03,2.88,0.54,4.2
		H253.604z M250.274,159.72c-1.47,0.24-3.12,0.42-3.12,2.31c0,1.29,0.87,2.07,2.34,2.07c2.22,0,3.78-1.23,3.78-3.45v-1.74
		C252.284,159.48,251.354,159.54,250.274,159.72z"/>
	<path fill="#FFFFFF" d="M271.813,166.44v-1.98c-1.02,1.59-2.55,2.4-4.68,2.4c-4.29,0-7.02-3.21-7.02-8.22c0-4.89,2.67-8.1,6.78-8.1
		c1.83,0,3.72,0.75,4.71,2.34v-7.8h4.23v21.359H271.813z M268.063,153.9c-2.31,0-3.66,1.771-3.66,4.74c0,3,1.38,4.8,3.66,4.8
		c2.34,0,3.69-1.74,3.69-4.77C271.753,155.67,270.374,153.9,268.063,153.9z"/>
	<path fill="#FFFFFF" d="M302.953,158.7c0,4.98-3.15,8.22-7.979,8.22c-4.83,0-8.01-3.27-8.01-8.22c0-4.92,3.21-8.189,8.07-8.189
		C299.803,150.51,302.953,153.78,302.953,158.7z M291.224,158.7c0,3.181,1.38,5.01,3.75,5.01c2.34,0,3.72-1.859,3.72-5.039
		c0-3.09-1.41-4.92-3.78-4.92C292.634,153.75,291.224,155.61,291.224,158.7z"/>
	<path fill="#FFFFFF" d="M316.003,166.44v-9.03c0-1.92-0.36-3.359-2.64-3.359c-2.55,0-3.36,1.83-3.36,4.08v8.31h-4.23V150.96h4.05
		v2.16c1.23-1.65,2.94-2.58,5.13-2.58c3.27,0,5.37,1.95,5.37,5.55v10.35H316.003z"/>
</g>
</svg>
