<svg version="1.1" xmlns="http://www.w3.org/2000/svg" xmlns:xlink="http://www.w3.org/1999/xlink" x="0px" y="0px" width="1310.073px" height="250px" viewBox="0 0 1310.073 250" enable-background="new 0 0 1310.073 250" xml:space="preserve" >
<circle fill-rule="evenodd" clip-rule="evenodd" fill="#DD0000" cx="125" cy="125" r="125"/>
<path fill-rule="evenodd" clip-rule="evenodd" fill="#BB0000" d="M213.167,118.5L75,52.667v147.166l28.5,48 c0,0,43.939,9.045,83.309-14.492c45.746-27.349,57.024-71.008,57.024-71.008L213.167,118.5z"/>
<polygon fill-rule="evenodd" clip-rule="evenodd" fill="#FFFFFF" points="190.503,108.077 96.979,163.044 97.011,85.512 133.659,103.002 112.017,117.328 111.961,138.326 172.788,99.599 74.958,52.5 74.958,200 213.25,118.833"/>
<path fill="#BB0000" d="M299.414,200.517v-25.352h-11.549l-0.495,14.188c-0.275,8.413-2.805,11.768-7.369,11.768 c-1.045,0-2.2-0.274-3.024-0.604v-2.805c0.77,0.385,2.254,0.495,3.08,0.495c2.31,0,3.685-2.529,3.904-9.019l0.55-16.938h18.368 v28.267H299.414z"/>
<path fill="#BB0000" d="M345.886,186.493c0,9.129-5.114,14.849-13.308,14.849c-7.974,0-13.143-5.5-13.473-14.134h-6.379v13.309 h-3.464V172.25h3.464v12.044h6.489c0.77-7.864,5.829-12.868,13.363-12.868C340.716,171.426,345.886,177.255,345.886,186.493z  M322.624,186.384c0,7.424,3.794,12.098,10.009,12.098c5.994,0,9.789-4.674,9.789-12.043s-3.85-12.099-9.899-12.099 C326.528,174.34,322.624,179.069,322.624,186.384z"/>
<path fill="#BB0000" d="M363.324,201.342c-10.394,0-13.143-8.359-13.143-17.104c0-5.443,0.77-12.153,3.52-16.388 c2.53-3.904,5.994-5.444,11.383-5.773l2.64-0.165c2.915-0.165,3.629-0.551,4.07-1.485h3.849c-0.605,3.354-2.75,4.234-7.644,4.564 l-4.179,0.275c-6.379,0.439-9.624,4.509-10.833,13.198h0.165c1.87-3.795,5.884-6.38,10.503-6.38 c7.589,0,12.813,5.555,12.813,14.519C376.467,195.457,371.188,201.342,363.324,201.342z M363.489,175 c-5.829,0-9.844,4.51-9.844,11.604c0,6.984,4.07,11.823,9.679,11.823c5.609,0,9.679-4.839,9.679-11.823 C373.002,179.729,368.933,175,363.489,175z"/>
<path fill="#BB0000" d="M401.218,200.517V176.32l-15.288,24.196h-4.29V172.25h3.464v24.197l15.288-24.197h4.29v28.267H401.218z" />
<path fill="#BB0000" d="M437.956,200.517v-23.262h-0.165l-9.954,23.262h-3.08l-9.954-23.262h-0.165v23.262h-3.464V172.25h4.619 l10.559,24.362l10.449-24.362h4.62v28.267H437.956z"/>
<path fill="#BB0000" d="M451.214,172.25v11.109h9.184c5.444,0,8.964,3.244,8.964,8.578c0,5.335-3.464,8.579-8.964,8.579H447.75 V172.25H451.214z M459.573,186.273h-8.359v11.328h8.359c3.959,0,6.324-1.979,6.324-5.664 C465.897,188.309,463.532,186.273,459.573,186.273z M478.16,172.25v28.267h-3.464V172.25H478.16z"/>
<path fill="#BB0000" d="M496.037,201.451c-7.864,0-12.978-5.773-12.978-14.737s5.334-15.233,12.923-15.233 c8.359,0,12.428,6.929,12.428,14.738v0.989h-21.832c0,5.939,2.75,11.438,9.569,11.438c4.509,0,7.534-2.529,8.634-7.424h3.354 C506.926,197.492,502.691,201.451,496.037,201.451z M495.873,174.34c-6.159,0-8.634,4.784-9.294,10.063h18.368 C504.561,178.135,501.152,174.34,495.873,174.34z"/>
<path fill="#BB0000" d="M531.733,177.694c2.035-4.179,5.389-6.269,10.119-6.269c7.699,0,12.758,5.994,12.758,15.067 c0,8.964-5.06,14.903-12.648,14.903c-4.564,0-8.084-2.035-10.009-6.104v15.783h-3.354V172.25h3.135V177.694z M531.843,186.438 c0,7.424,3.74,12.043,9.679,12.043c5.774,0,9.569-4.729,9.569-11.988c0-7.424-3.739-12.208-9.679-12.208 S531.843,178.85,531.843,186.438z"/>
<path fill="#BB0000" d="M584.805,200.352c-0.935,0.33-1.76,0.44-2.75,0.44c-3.354,0-3.685-2.585-3.685-5.17 c-2.31,3.685-5.884,5.664-10.668,5.664c-5.774,0-9.239-2.97-9.239-7.919c0-5.169,3.52-8.028,10.503-8.743 c4.455-0.44,6.874-0.55,8.249-1.485c0.715-0.495,0.99-1.265,0.99-2.694c0-4.675-2.859-6.104-7.369-6.104 c-4.785,0-7.259,2.09-7.699,6.654h-3.299c0.275-6.049,4.399-9.514,11.383-9.514c6.379,0,10.394,2.805,10.394,8.139v15.398 c0,1.704-0.055,2.859,1.87,2.859c0.44,0,0.715,0,1.32-0.165V200.352z M570.507,187.099c-3.575,0.495-8.414,1.319-8.414,5.938 c0,3.3,2.53,5.39,6.489,5.39c5.169,0,9.624-3.3,9.624-8.688v-4.619C577.106,186.328,574.301,186.604,570.507,187.099z"/>
<path fill="#BB0000" d="M611.81,209.535v-9.019h-22.767v9.019h-3.464v-11.934h3.354c2.75-5.059,3.904-11.768,3.904-21.722v-3.63 h18.478v25.352h3.959v11.934H611.81z M607.851,175.165h-11.659v1.87c0,9.403-1.595,16.442-3.684,20.566h15.343V175.165z"/>
<path fill="#BB0000" d="M638.65,200.517V176.32l-15.288,24.196h-4.29V172.25h3.464v24.197l15.288-24.197h4.29v28.267H638.65z"/>
<path fill="#BB0000" d="M674.014,186.493c0,9.129-5.114,14.849-13.308,14.849c-8.249,0-13.474-5.829-13.474-14.958 c0-9.074,5.279-14.958,13.474-14.958C668.845,171.426,674.014,177.255,674.014,186.493z M650.752,186.384 c0,7.424,3.794,12.098,10.009,12.098c5.994,0,9.789-4.674,9.789-12.043s-3.85-12.099-9.899-12.099 C654.657,174.34,650.752,179.069,650.752,186.384z"/>
<path fill="#BB0000" d="M691.011,201.342c-7.919,0-13.089-5.774-13.089-14.684c0-9.238,5.225-15.232,13.198-15.232 c6.544,0,10.834,3.629,11.604,9.733h-3.52c-0.88-4.454-3.685-6.874-8.028-6.874c-5.939,0-9.679,4.729-9.679,12.099 s3.629,12.098,9.349,12.098c4.729,0,7.919-2.969,8.634-8.083h3.464C702.009,196.832,697.829,201.342,691.011,201.342z"/>
<path fill="#BB0000" d="M718.455,175.165v25.352h-3.464v-25.352h-10.504v-2.915h24.472v2.915H718.455z"/>
<path fill="#BB0000" d="M757.009,200.352c-0.936,0.33-1.76,0.44-2.75,0.44c-3.354,0-3.685-2.585-3.685-5.17 c-2.31,3.685-5.884,5.664-10.668,5.664c-5.774,0-9.239-2.97-9.239-7.919c0-5.169,3.52-8.028,10.504-8.743 c4.454-0.44,6.874-0.55,8.249-1.485c0.715-0.495,0.989-1.265,0.989-2.694c0-4.675-2.859-6.104-7.369-6.104 c-4.784,0-7.259,2.09-7.698,6.654h-3.3c0.274-6.049,4.399-9.514,11.384-9.514c6.379,0,10.394,2.805,10.394,8.139v15.398 c0,1.704-0.056,2.859,1.869,2.859c0.44,0,0.715,0,1.32-0.165V200.352z M742.71,187.099c-3.574,0.495-8.413,1.319-8.413,5.938 c0,3.3,2.529,5.39,6.488,5.39c5.17,0,9.624-3.3,9.624-8.688v-4.619C749.31,186.328,746.505,186.604,742.71,187.099z"/>
<path fill="#BB0000" d="M780.273,200.517v-13.309H764.16v13.309h-3.465V172.25h3.465v12.044h16.113V172.25h3.464v28.267H780.273z "/>
<path fill="#BB0000" d="M813.548,209.535v-9.019h-23.481V172.25h3.464v25.352h16.113V172.25h3.464v25.352h3.905v11.934H813.548z" />
<path fill="#BB0000" d="M840.389,200.517V176.32l-15.288,24.196h-4.29V172.25h3.465v24.197l15.288-24.197h4.289v28.267H840.389z" />
<path fill="#BB0000" d="M869.923,200.517V176.32l-15.288,24.196h-4.29V172.25h3.465v24.197l15.288-24.197h4.289v28.267H869.923z" />
<path fill="#BB0000" d="M907.433,201.342c-10.394,0-13.144-8.359-13.144-17.104c0-5.443,0.771-12.153,3.52-16.388 c2.53-3.904,5.994-5.444,11.384-5.773l2.64-0.165c2.915-0.165,3.63-0.551,4.069-1.485h3.85c-0.604,3.354-2.749,4.234-7.644,4.564 l-4.18,0.275c-6.379,0.439-9.624,4.509-10.834,13.198h0.165c1.87-3.795,5.885-6.38,10.504-6.38 c7.589,0,12.813,5.555,12.813,14.519C920.576,195.457,915.297,201.342,907.433,201.342z M907.598,175 c-5.829,0-9.844,4.51-9.844,11.604c0,6.984,4.069,11.823,9.679,11.823s9.679-4.839,9.679-11.823 C917.111,179.729,913.042,175,907.598,175z"/>
<path fill="#BB0000" d="M945.437,200.517v-25.352h-11.548l-0.495,14.188c-0.275,8.413-2.805,11.768-7.369,11.768 c-1.045,0-2.2-0.274-3.024-0.604v-2.805c0.77,0.385,2.255,0.495,3.079,0.495c2.31,0,3.685-2.529,3.905-9.019l0.55-16.938h18.367 v28.267H945.437z"/>
<path fill="#BB0000" d="M974.861,200.517V176.32l-15.288,24.196h-4.29V172.25h3.465v24.197l15.288-24.197h4.289v28.267H974.861z" />
<path fill="#BB0000" d="M985.533,200.517h-4.235l12.264-16.498l-11.054-11.769h4.675l13.033,14.408V172.25h3.465v14.354 l13.033-14.354h4.674l-11.054,11.769l12.264,16.498h-4.234l-10.448-14.188l-4.234,4.399v9.789h-3.465v-9.789l-4.234-4.399 L985.533,200.517z"/>
<path fill="#BB0000" d="M1037.066,201.451c-7.864,0-12.979-5.773-12.979-14.737s5.334-15.233,12.923-15.233 c8.359,0,12.429,6.929,12.429,14.738v0.989h-21.832c0,5.939,2.75,11.438,9.568,11.438c4.51,0,7.534-2.529,8.634-7.424h3.354 C1047.955,197.492,1043.721,201.451,1037.066,201.451z M1036.901,174.34c-6.159,0-8.634,4.784-9.294,10.063h18.367 C1045.59,178.135,1042.181,174.34,1036.901,174.34z"/>
<path fill="#DD0000" d="M349.464,67.743h-47.757v19.531h43.851v15.499h-43.851v22.051h48.639v16.507h-68.17V51.614h67.288V67.743 z"/>
<path fill="#DD0000" d="M427.332,141.331h-63.508V51.614h19.657v72.832h43.851V141.331z"/>
<path fill="#DD0000" d="M438.666,51.614h36.29c27.848,0,43.473,15.876,43.473,44.858c0,28.856-15.625,44.859-43.473,44.859 h-36.29V51.614z M472.562,124.95c18.019,0,26.083-10.458,26.083-28.478s-8.316-28.478-26.083-28.478h-14.365v56.955H472.562z"/>
<path fill="#DD0000" d="M616.457,96.598c0,27.974-17.767,46.875-44.103,46.875c-26.587,0-44.354-18.776-44.354-46.875 c0-28.478,17.641-47.127,44.48-47.127C598.689,49.471,616.457,68.499,616.457,96.598z M547.909,96.22 c0,19.279,9.325,30.872,24.571,30.999c14.869,0,24.067-11.846,24.067-30.999c0-18.901-9.324-30.62-24.319-30.62 C557.359,65.6,547.909,77.571,547.909,96.22z"/>
<path fill="#DD0000" d="M675.297,51.614c16.507,0,30.241,7.434,30.241,25.453c0,10.458-5.292,18.649-14.238,22.051 c9.954,2.016,12.475,12.097,13.23,20.917c0.504,5.671,0.756,18.02,4.284,21.296h-20.413c-2.268-4.536-2.268-13.482-2.772-18.397 c-1.26-12.349-5.04-16.759-17.893-16.759h-17.516v35.156H630.69V51.614H675.297z M650.221,91.936h18.649 c9.199,0,17.39-1.638,17.39-12.727c0-10.333-8.19-12.097-16.507-12.097h-19.532V91.936z"/>
<path fill="#DD0000" d="M799.659,141.331h-20.665l-7.057-20.036h-33.392l-7.309,20.036h-20.161l34.147-89.844h20.287 L799.659,141.331z M755.305,73.539l-11.971,33.392h23.815L755.305,73.539z"/>
<path fill="#DD0000" d="M807.34,51.614h36.29c27.848,0,43.473,15.876,43.473,44.858c0,28.856-15.625,44.859-43.473,44.859h-36.29 V51.614z M841.236,124.95c18.019,0,26.083-10.458,26.083-28.478s-8.316-28.478-26.083-28.478h-14.365v56.955H841.236z"/>
<path fill="#DD0000" d="M920.362,141.331h-19.783V51.614h19.783V141.331z"/>
<path fill="#DD0000" d="M1022.3,96.598c0,27.974-17.767,46.875-44.103,46.875c-26.587,0-44.354-18.776-44.354-46.875 c0-28.478,17.642-47.127,44.48-47.127C1004.533,49.471,1022.3,68.499,1022.3,96.598z M953.752,96.22 c0,19.279,9.324,30.872,24.571,30.999c14.869,0,24.067-11.846,24.067-30.999c0-18.901-9.324-30.62-24.319-30.62 C963.202,65.6,953.752,77.571,953.752,96.22z"/>
<path fill="#DD0000" d="M1040.803,142.685c-1.887,0-3.497-0.677-4.83-2.03s-1.999-2.974-1.999-4.86 c0-1.886,0.666-3.517,1.999-4.892c1.333-1.373,2.943-2.061,4.83-2.061c1.928,0,3.568,0.688,4.922,2.061 c1.354,1.375,2.03,3.006,2.03,4.892c0,1.887-0.677,3.507-2.03,4.86S1042.73,142.685,1040.803,142.685z"/>
<path fill="#DD0000" d="M1158.918,54.411h-88.83v66.57h80.35v3.816h-80.35v76.535h-4.24V50.382h93.07V54.411z"/>
<path fill="#DD0000" d="M1310.073,201.331h-4.24V67.979c0-4.24,0.424-8.268,0.424-12.508c0,0-42.825,97.312-64.449,145.86h-5.301 c-21.412-48.125-64.449-145.86-64.449-145.86c0,4.24,0.212,8.48,0.212,12.72v133.14h-4.452V50.382h6.36l64.874,146.285 l65.297-146.285h5.725V201.331z"/>
</svg>