<?xml version="1.0" encoding="utf-8"?>
<!-- Generator: Adobe Illustrator 15.0.2, SVG Export Plug-In . SVG Version: 6.00 Build 0)  -->
<!DOCTYPE svg PUBLIC "-//W3C//DTD SVG 1.1//EN" "http://www.w3.org/Graphics/SVG/1.1/DTD/svg11.dtd">
<svg version="1.1" id="Слой_1" xmlns="http://www.w3.org/2000/svg" xmlns:xlink="http://www.w3.org/1999/xlink" x="0px" y="0px"
	 width="500px" height="2427.039px" viewBox="0 0 500 2427.039" enable-background="new 0 0 500 2427.039" xml:space="preserve">
<circle fill="#DD0000" cx="250" cy="1748" r="250"/>
<path fill="#BB0000" d="M426.334,1735L150,1603.333v294.334l57,96c0,0,87.878,18.088,166.619-28.986
	c91.491-54.691,114.047-142.014,114.047-142.014L426.334,1735z"/>
<polygon fill="#FFFFFF" points="166.11,1632.546 166.11,1884.289 401.561,1745.88 "/>
<circle fill="#DD0000" cx="250" cy="1248" r="250"/>
<path fill="#BB0000" d="M343.583,1102L139,1102.083v295.584l68,96c0,0,87.878,18.088,166.619-28.986
	c91.491-54.691,114.047-142.014,114.047-142.014L343.583,1102z"/>
<rect x="159" y="1116.8" fill="#FFFFFF" width="65" height="266.401"/>
<rect x="269" y="1116.8" fill="#FFFFFF" width="65" height="266.401"/>
<circle fill="#DD0000" cx="250" cy="750" r="250"/>
<path fill="#BB0000" d="M374.084,627.75l-249.334,0.083v248.834l82.25,119c0,0,87.878,18.088,166.619-28.985
	c91.491-54.692,114.047-142.015,114.047-142.015L374.084,627.75z"/>
<rect x="143.624" y="646.439" fill="#FFFFFF" width="211.65" height="211.859"/>
<circle fill="#BB0000" cx="250" cy="250" r="250"/>
<path fill="#FFFFFF" d="M152.929,271.822c-10.417,10.417-27.463,10.417-37.879,0c-10.417-10.417-10.417-27.462,0-37.879
	s27.462-10.417,37.879,0C163.345,244.36,163.345,261.405,152.929,271.822z M191.281,192.276c-12.547,12.547-32.908,12.547-45.455,0
	c-12.547-12.547-12.547-32.908,0-45.455c12.547-12.547,32.908-12.547,45.455,0C203.828,159.368,203.829,179.729,191.281,192.276z
	 M183.706,351.369c-8.405,8.404-21.899,8.404-30.304,0c-8.404-8.404-8.404-21.899,0-30.303c8.405-8.405,21.899-8.405,30.304,0
	C192.11,329.47,192.11,342.964,183.706,351.369z M278.402,161.499c-14.678,14.678-38.354,14.678-53.03,0
	c-14.56-14.56-14.678-38.353,0-53.031c14.56-14.56,38.471-14.56,53.03,0C293.082,123.146,292.963,146.939,278.402,161.499z
	 M267.04,385.934c-8.286,8.286-22.018,8.286-30.304,0c-8.404-8.405-8.286-22.018,0-30.304c8.404-8.404,21.898-8.404,30.304,0
	C275.326,363.916,275.443,377.529,267.04,385.934z M350.374,184.7c-8.404,8.404-21.899,8.404-30.304,0
	c-8.404-8.405-8.404-21.899,0-30.304c8.4-8.404,21.896-8.404,30.304,0C358.778,162.801,358.778,176.295,350.374,184.7z
	 M350.374,351.369c-8.404,8.404-21.899,8.404-30.304,0c-8.405-8.404-8.404-21.899,0-30.303c8.4-8.405,21.896-8.405,30.304,0
	C358.778,329.47,358.778,342.964,350.374,351.369z M384.938,268.034c-8.4,8.405-22.017,8.286-30.303,0
	c-8.404-8.404-8.404-21.899,0-30.303c8.286-8.286,21.898-8.404,30.303,0C393.225,246.017,393.225,259.748,384.938,268.034z"/>
<g>
	<g enable-background="new    ">
		<path fill="#DD0000" d="M422.211,2427.039c-8.538,0-16.824-3.517-22.6-9.542l-86.133-85.882
			c-29.381,20.341-64.538,31.139-100.194,31.139c-97.683,0-176.784-79.103-176.784-176.784s79.101-176.783,176.784-176.783
			c97.683,0,176.784,79.102,176.784,176.783c0,35.658-10.8,70.813-31.141,100.194l86.135,86.132
			c5.773,5.776,9.289,14.063,9.289,22.602C454.354,2412.474,439.789,2427.039,422.211,2427.039z M213.284,2073.47
			c-62.025,0-112.499,50.475-112.499,112.499c0,62.025,50.474,112.499,112.499,112.499c62.024,0,112.499-50.474,112.499-112.499
			C325.783,2123.944,275.309,2073.47,213.284,2073.47z"/>
	</g>
</g>
</svg>
