<?xml version="1.0" encoding="utf-8"?>
<!-- Generator: Adobe Illustrator 15.0.2, SVG Export Plug-In . SVG Version: 6.00 Build 0)  -->
<!DOCTYPE svg PUBLIC "-//W3C//DTD SVG 1.1//EN" "http://www.w3.org/Graphics/SVG/1.1/DTD/svg11.dtd">
<svg version="1.1" id="Слой_1" xmlns="http://www.w3.org/2000/svg" xmlns:xlink="http://www.w3.org/1999/xlink" x="0px" y="0px"
	 width="30px" height="146.622px" viewBox="220 1067.397 30 146.622" enable-background="new 220 1067.397 30 146.622"
	 xml:space="preserve">
<path fill="#BB0000" d="M245.58,1171.497l-16.58-7.9v17.66l3.42,5.76c0,0,5.272,1.086,9.997-1.739
	c5.489-3.281,6.843-8.521,6.843-8.521L245.58,1171.497z"/>
<polygon fill="#FFFFFF" points="229.967,1165.35 229.967,1180.454 244.094,1172.149 "/>
<path fill="#BB0000" d="M240.615,1133.517l-12.275,0.006v17.734l4.08,5.76c0,0,5.272,1.086,9.997-1.739
	c5.489-3.281,6.843-8.521,6.843-8.521L240.615,1133.517z"/>
<rect x="229.54" y="1134.405" fill="#FFFFFF" width="3.9" height="15.983"/>
<rect x="236.14" y="1134.405" fill="#FFFFFF" width="3.9" height="15.983"/>
<path fill="#BB0000" d="M242.445,1105.063l-14.96,0.005v14.93l4.935,7.14c0,0,5.272,1.086,9.997-1.739
	c5.489-3.281,6.843-8.521,6.843-8.521L242.445,1105.063z"/>
<rect x="228.618" y="1106.184" fill="#FFFFFF" width="12.699" height="12.711"/>
<path fill="#FFFFFF" d="M229.176,1083.706c-0.625,0.625-1.648,0.625-2.273,0s-0.625-1.647,0-2.272s1.648-0.625,2.273,0
	S229.801,1083.081,229.176,1083.706z M231.477,1078.934c-0.753,0.753-1.975,0.753-2.728,0s-0.753-1.975,0-2.728s1.975-0.753,2.728,0
	C232.229,1076.959,232.23,1078.181,231.477,1078.934z M231.022,1088.479c-0.504,0.504-1.314,0.504-1.818,0
	c-0.504-0.505-0.504-1.314,0-1.818c0.504-0.505,1.314-0.505,1.818,0C231.526,1087.165,231.526,1087.975,231.022,1088.479z
	 M236.704,1077.087c-0.881,0.881-2.301,0.881-3.182,0c-0.874-0.874-0.881-2.301,0-3.182c0.874-0.874,2.308-0.874,3.182,0
	C237.585,1074.786,237.578,1076.213,236.704,1077.087z M236.022,1090.553c-0.497,0.497-1.321,0.497-1.818,0
	c-0.504-0.504-0.497-1.32,0-1.818c0.504-0.504,1.313-0.504,1.818,0C236.52,1089.232,236.526,1090.049,236.022,1090.553z
	 M241.022,1078.479c-0.504,0.504-1.314,0.504-1.818,0c-0.504-0.505-0.504-1.314,0-1.818c0.504-0.505,1.313-0.505,1.818,0
	C241.526,1077.165,241.526,1077.975,241.022,1078.479z M241.022,1088.479c-0.504,0.504-1.314,0.504-1.818,0
	c-0.504-0.505-0.504-1.314,0-1.818c0.504-0.505,1.313-0.505,1.818,0C241.526,1087.165,241.526,1087.975,241.022,1088.479z
	 M243.097,1083.479c-0.505,0.504-1.321,0.497-1.818,0c-0.505-0.505-0.505-1.314,0-1.818c0.497-0.497,1.313-0.505,1.818,0
	C243.594,1082.158,243.594,1082.981,243.097,1083.479z"/>
<g>
	<g enable-background="new    ">
		<path fill="#DD0000" d="M245.333,1214.02c-0.513,0-1.01-0.211-1.356-0.573l-5.168-5.152c-1.763,1.221-3.872,1.868-6.012,1.868
			c-5.861,0-10.607-4.746-10.607-10.607c0-5.86,4.746-10.606,10.607-10.606c5.861,0,10.607,4.746,10.607,10.606
			c0,2.14-0.648,4.249-1.868,6.012l5.168,5.168c0.346,0.347,0.557,0.844,0.557,1.356
			C247.261,1213.146,246.388,1214.02,245.333,1214.02z M232.797,1192.805c-3.721,0-6.75,3.028-6.75,6.75s3.029,6.75,6.75,6.75
			c3.722,0,6.75-3.028,6.75-6.75S236.519,1192.805,232.797,1192.805z"/>
	</g>
</g>
</svg>
